<svg width="30" height="36" viewBox="0 0 30 36" fill="none" xmlns="http://www.w3.org/2000/svg">
<path fill-rule="evenodd" clip-rule="evenodd" d="M25.0549 19.09C25.1069 24.527 29.9459 26.336 29.9999 26.36C29.9599 26.487 29.2269 28.938 27.4499 31.47C25.9149 33.659 24.3199 35.84 21.8099 35.885C19.3429 35.929 18.5499 34.458 15.7299 34.458C12.9099 34.458 12.0279 35.84 9.6929 35.929C7.2699 36.019 5.42391 33.562 3.87591 31.381C0.711905 26.921 -1.70609 18.776 1.54091 13.278C3.15391 10.548 6.0359 8.818 9.1639 8.774C11.5439 8.73 13.7899 10.336 15.2449 10.336C16.6989 10.336 19.4289 8.405 22.2979 8.688C23.4989 8.738 26.8719 9.162 29.0369 12.253C28.8619 12.358 25.0129 14.544 25.0549 19.09ZM20.4199 5.737C21.7049 4.218 22.5699 2.104 22.3349 0C20.4799 0.073 18.2379 1.205 16.9079 2.723C15.7149 4.068 14.6709 6.219 14.9529 8.281C17.0199 8.437 19.1329 7.257 20.4199 5.737Z" fill="#79A7B5"/>
</svg>
